<svg width="323.72447161103224" height="64.80000000000001" viewBox="0 0 323.72447161103224 64.80000000000001" class="css-1j8o68f">
    <defs id="SvgjsDefs1410">
        <linearGradient id="SvgjsLinearGradient1417">
            <stop id="SvgjsStop1418" stop-color="#8f5e25" offset="0"></stop>
            <stop id="SvgjsStop1419" stop-color="#fbf4a1" offset="0.5"></stop>
            <stop id="SvgjsStop1420" stop-color="#8f5e25" offset="1"></stop>
        </linearGradient>
        <linearGradient id="SvgjsLinearGradient1421">
            <stop id="SvgjsStop1422" stop-color="#8f5e25" offset="0"></stop>
            <stop id="SvgjsStop1423" stop-color="#fbf4a1" offset="0.5"></stop>
            <stop id="SvgjsStop1424" stop-color="#8f5e25" offset="1"></stop>
        </linearGradient>
        <linearGradient id="SvgjsLinearGradient1425">
            <stop id="SvgjsStop1426" stop-color="#8f5e25" offset="0"></stop>
            <stop id="SvgjsStop1427" stop-color="#fbf4a1" offset="0.5"></stop>
            <stop id="SvgjsStop1428" stop-color="#8f5e25" offset="1"></stop>
        </linearGradient>
    </defs>
    <g id="SvgjsG1412" featurekey="inlineSymbolFeature-0" transform="matrix(1.0070140439516846,0,0,1.0070140439516846,106.7685902884493,-18.401740723926697)" fill="url(#SvgjsLinearGradient1421)">
        <path xmlns="http://www.w3.org/2000/svg" d="M61.2,54.9c-10.2,3.2-9.9,14-9.9,14s6.4-4.4,15.1-6C77.8,60.8,82,62.8,82,62.8s-3.2-0.4-16.8,2.3c-7.5,1.5-13.9,6.7-16.1,9  c0.1-1.4,0.1-2.7,0-3.7c-0.3-3.1-3.4-15.3-11.5-23.4C24.2,33.7,20.3,31.7,20.3,31.7s6.2,0.8,17.6,11.8c8.7,8.4,12.5,18.2,12.5,18.2  s8.4-12-0.6-23.3C32.2,16.7,2.3,18.3,2.3,18.3S0.1,40,18.2,56.6c10.5,9.6,22.1,9.1,26.9,8.3c0.6,1.3,1.1,2.9,1.6,4.7  c1.4,5.1-3.1,8.6-3.1,8.6s-2.4,1.3,1.7,3.8c2.2,1.4,2.7,0,2.7,0s0.3-1.8,0.6-4.1c0.1-1,0.6-2,1.4-2.7c0.1-0.1,0.2-0.1,0.2-0.2  c1-0.9,2-1.6,2.9-2.2c2.6,2.4,9.5,7.5,19.9,5.9c17.9-2.7,25.4-17,25.4-17S80.8,48.7,61.2,54.9z"></path>
    </g>
</svg>